<svg width="24" height="24" viewBox="0 0 24 24" fill="none" xmlns="http://www.w3.org/2000/svg">
<path d="M4 22C4 21 4 11 4 7M4 22C4 16.1421 4 7 4 7M4 22C4 22.46 4.21161 22.7084 4.44015 22.8425C4.77089 23.0367 5.17152 22.8897 5.49411 22.6824L10.9185 19.1953C11.5773 18.7717 12.4227 18.7717 13.0815 19.1953L18.5059 22.6824C18.8285 22.8897 19.2291 23.0367 19.5599 22.8425C19.7884 22.7084 20 22.46 20 22M4 22V7M4 7C4 3 5 2 9 2M9 2C13 2 11 2 15 2M9 2L15 2M15 2C19 2 20 3 20 7M20 7C20 11 20 21 20 22M20 7V22" stroke="black" stroke-width="2"/>
</svg>
